<mxfile host="Electron" modified="2023-12-29T13:30:21.170Z" agent="Mozilla/5.0 (Windows NT 10.0; Win64; x64) AppleWebKit/537.36 (KHTML, like Gecko) draw.io/22.1.15 Chrome/120.0.6099.109 Electron/28.1.0 Safari/537.36" etag="dcHG5qwwCnsY6mJeaAO_" version="22.1.15" type="device">
  <diagram name="Page-1" id="xCV3qbr-aHJIMHQM99jd">
    <mxGraphModel dx="261" dy="179" grid="1" gridSize="10" guides="1" tooltips="1" connect="1" arrows="1" fold="1" page="1" pageScale="1" pageWidth="850" pageHeight="1100" math="0" shadow="0">
      <root>
        <mxCell id="0" />
        <mxCell id="1" parent="0" />
        <mxCell id="oNO306sJsqmNnjWj1zl3-8" style="edgeStyle=orthogonalEdgeStyle;rounded=0;orthogonalLoop=1;jettySize=auto;html=1;curved=1;" edge="1" parent="1" source="XeMqBI3337VZsXZ9aHH5-29" target="XeMqBI3337VZsXZ9aHH5-33">
          <mxGeometry relative="1" as="geometry">
            <Array as="points">
              <mxPoint x="400" y="190" />
              <mxPoint x="400" y="250" />
            </Array>
          </mxGeometry>
        </mxCell>
        <mxCell id="oNO306sJsqmNnjWj1zl3-9" value="&lt;font face=&quot;consolas&quot;&gt;取地址&lt;br&gt;&amp;amp;d&lt;/font&gt;" style="edgeLabel;html=1;align=center;verticalAlign=middle;resizable=0;points=[];" vertex="1" connectable="0" parent="oNO306sJsqmNnjWj1zl3-8">
          <mxGeometry relative="1" as="geometry">
            <mxPoint as="offset" />
          </mxGeometry>
        </mxCell>
        <mxCell id="XeMqBI3337VZsXZ9aHH5-29" value="&lt;p style=&quot;line-height: 100%;&quot;&gt;&lt;font face=&quot;Consolas&quot;&gt;d&lt;/font&gt;&lt;/p&gt;" style="rounded=0;whiteSpace=wrap;html=1;strokeColor=none;fillColor=#fad7ac;align=center;" parent="1" vertex="1">
          <mxGeometry x="310" y="180" width="60" height="20" as="geometry" />
        </mxCell>
        <mxCell id="XeMqBI3337VZsXZ9aHH5-33" value="&lt;p style=&quot;line-height: 100%;&quot;&gt;&lt;font face=&quot;Consolas&quot;&gt;pd&lt;/font&gt;&lt;/p&gt;" style="rounded=0;whiteSpace=wrap;html=1;strokeColor=none;fillColor=#b1ddf0;align=center;" parent="1" vertex="1">
          <mxGeometry x="310" y="240" width="60" height="20" as="geometry" />
        </mxCell>
        <mxCell id="oNO306sJsqmNnjWj1zl3-6" value="&lt;p style=&quot;line-height: 100%;&quot;&gt;&lt;font face=&quot;Consolas&quot;&gt;double&lt;/font&gt;&lt;/p&gt;" style="rounded=0;whiteSpace=wrap;html=1;strokeColor=none;fillColor=#FFC37B;align=center;" vertex="1" parent="1">
          <mxGeometry x="315" y="150" width="50" height="20" as="geometry" />
        </mxCell>
        <mxCell id="oNO306sJsqmNnjWj1zl3-7" value="&lt;p style=&quot;line-height: 100%;&quot;&gt;&lt;font face=&quot;Consolas&quot;&gt;double*&lt;/font&gt;&lt;/p&gt;" style="rounded=0;whiteSpace=wrap;html=1;strokeColor=none;fillColor=#80CBF2;align=center;" vertex="1" parent="1">
          <mxGeometry x="315" y="270" width="50" height="20" as="geometry" />
        </mxCell>
        <mxCell id="oNO306sJsqmNnjWj1zl3-10" style="edgeStyle=orthogonalEdgeStyle;rounded=0;orthogonalLoop=1;jettySize=auto;html=1;curved=1;" edge="1" parent="1" source="XeMqBI3337VZsXZ9aHH5-33" target="XeMqBI3337VZsXZ9aHH5-29">
          <mxGeometry relative="1" as="geometry">
            <mxPoint x="310" y="190" as="sourcePoint" />
            <mxPoint x="270" y="170" as="targetPoint" />
            <Array as="points">
              <mxPoint x="280" y="250" />
              <mxPoint x="280" y="190" />
            </Array>
          </mxGeometry>
        </mxCell>
        <mxCell id="oNO306sJsqmNnjWj1zl3-11" value="&lt;font face=&quot;consolas&quot;&gt;取内容&lt;br&gt;*pd&lt;/font&gt;" style="edgeLabel;html=1;align=center;verticalAlign=middle;resizable=0;points=[];" vertex="1" connectable="0" parent="oNO306sJsqmNnjWj1zl3-10">
          <mxGeometry relative="1" as="geometry">
            <mxPoint as="offset" />
          </mxGeometry>
        </mxCell>
      </root>
    </mxGraphModel>
  </diagram>
</mxfile>
